<svg xmlns="http://www.w3.org/2000/svg" viewBox="0 0 108 108" role="img" aria-label="Ping Thing icon"><rect width="108" height="108" rx="24" fill="#090807"/><path d="M24 54a30 30 0 1 0 60 0a30 30 0 1 0-60 0" fill="none" stroke="#00DD88" stroke-width="3.5" stroke-opacity=".9"/><path d="M33 54a21 21 0 1 0 42 0a21 21 0 1 0-42 0" fill="none" stroke="#00DD88" stroke-width="2.5" stroke-opacity=".55"/><path d="M41 54a13 13 0 1 0 26 0a13 13 0 1 0-26 0" fill="none" stroke="#00DD88" stroke-width="2" stroke-opacity=".35"/><path d="M49.5 33a4.5 4.5 0 1 0 9 0a4.5 4.5 0 1 0-9 0" fill="#C89040"/><path d="M59.5 60a3.5 3.5 0 1 0 7 0a3.5 3.5 0 1 0-7 0" fill="#5090C0"/><path d="M40 62a4 4 0 1 0 8 0a4 4 0 1 0-8 0" fill="#22AA66"/></svg>