<svg xmlns="http://www.w3.org/2000/svg" viewBox="0 0 108 108" role="img" aria-label="Spectral Camera icon"><rect width="108" height="108" rx="24" fill="#050507"/><path d="M54 20a34 34 0 1 0 0 68a34 34 0 1 0 0-68z" fill="none" stroke="#67D7C4" stroke-width="4"/><path d="M54 31a23 23 0 1 0 0 46a23 23 0 1 0 0-46z" fill="none" stroke="#A66BFF" stroke-width="4"/><path d="M70 42c5 0 10 5 10 10s-5 10-10 10s-10-5-10-10s5-10 10-10z" fill="#E9B94E"/><path d="M36 56c6-12 30-12 36 0c-6 12-30 12-36 0z" fill="#67D7C4"/></svg>